# xmcd
#
# Track frame offsets:
#	150
#	21505
#	40052
#	59769
#	72801
#	94463
#	109513
#	123210
#	139907
#	161629
#	175086
#	190186
#
# Disc length: 2828 seconds
#
# Revision: 1
# Processed by: cddbd v1.5.1PL0 Copyright (c) Steve Scherf et al.
# Submitted via: CDmax 2.0
#
DISCID=a90b0a0c
DTITLE=Roy Rivers - Thank God I'm a country boy
DYEAR=2005
DGENRE=Country
TTITLE0=Rocky Mountain high
TTITLE1=What our love is not about
TTITLE2=Back home again
TTITLE3=Thank God I'm a country boy (with Dolly Parton)
TTITLE4=Sunshine on my shoulders
TTITLE5=Take me home, country roads
TTITLE6=True love is
TTITLE7=Oh railroad
TTITLE8=My sweet lady
TTITLE9=All caught up
TTITLE10=Dreaming my way home
TTITLE11=Hi Mom, it's me
EXTD=
EXTT0=
EXTT1=
EXTT2=
EXTT3=
EXTT4=
EXTT5=
EXTT6=
EXTT7=
EXTT8=
EXTT9=
EXTT10=
EXTT11=
PLAYORDER=
